<svg width="24" height="25" viewBox="0 0 24 25" fill="none" xmlns="http://www.w3.org/2000/svg">
<path d="M12 8.5V21.5M12 8.5C11.6383 7.0094 11.0154 5.73501 10.2127 4.84311C9.41003 3.95121 8.46469 3.48314 7.5 3.49995C6.83696 3.49995 6.20107 3.76334 5.73223 4.23218C5.26339 4.70102 5 5.33691 5 5.99995C5 6.66299 5.26339 7.29887 5.73223 7.76772C6.20107 8.23656 6.83696 8.49995 7.5 8.49995M12 8.5C12.3617 7.0094 12.9846 5.73501 13.7873 4.84311C14.59 3.95121 15.5353 3.48314 16.5 3.49995C17.163 3.49995 17.7989 3.76334 18.2678 4.23218C18.7366 4.70102 19 5.33691 19 5.99995C19 6.66299 18.7366 7.29887 18.2678 7.76772C17.7989 8.23656 17.163 8.49995 16.5 8.49995M19 12.5V19.5C19 20.0304 18.7893 20.5391 18.4142 20.9142C18.0391 21.2893 17.5304 21.5 17 21.5H7C6.46957 21.5 5.96086 21.2893 5.58579 20.9142C5.21071 20.5391 5 20.0304 5 19.5V12.5M4 8.5H20C20.5523 8.5 21 8.94772 21 9.5V11.5C21 12.0523 20.5523 12.5 20 12.5H4C3.44772 12.5 3 12.0523 3 11.5V9.5C3 8.94772 3.44772 8.5 4 8.5Z" stroke="white" stroke-width="2" stroke-linecap="round" stroke-linejoin="round"/>
</svg>
