<svg width="41" height="41" viewBox="0 0 41 41" fill="none" xmlns="http://www.w3.org/2000/svg">
<path d="M11.9583 18.7916V32.4583C11.9583 32.9114 11.7783 33.3459 11.458 33.6663C11.1376 33.9867 10.7031 34.1666 10.25 34.1666H6.83333C6.38026 34.1666 5.94573 33.9867 5.62536 33.6663C5.30498 33.3459 5.125 32.9114 5.125 32.4583V20.5C5.125 20.0469 5.30498 19.6124 5.62536 19.292C5.94573 18.9716 6.38026 18.7916 6.83333 18.7916H11.9583ZM11.9583 18.7916C13.7706 18.7916 15.5087 18.0717 16.7902 16.7902C18.0717 15.5087 18.7917 13.7706 18.7917 11.9583V10.25C18.7917 9.34382 19.1516 8.47478 19.7924 7.83403C20.4331 7.19328 21.3022 6.83331 22.2083 6.83331C23.1145 6.83331 23.9835 7.19328 24.6243 7.83403C25.265 8.47478 25.625 9.34382 25.625 10.25V18.7916H30.75C31.6562 18.7916 32.5252 19.1516 33.1659 19.7924C33.8067 20.4331 34.1667 21.3022 34.1667 22.2083L32.4583 30.75C32.2126 31.798 31.7466 32.6979 31.1304 33.3141C30.5141 33.9304 29.7811 34.2295 29.0417 34.1666H17.0833C15.7241 34.1666 14.4205 33.6267 13.4594 32.6656C12.4983 31.7044 11.9583 30.4009 11.9583 29.0416" stroke="black" stroke-width="2" stroke-linecap="round" stroke-linejoin="round"/>
</svg>
